<svg width="1600" height="980" viewBox="0 0 1600 980" fill="none" xmlns="http://www.w3.org/2000/svg">
  <defs>
    <linearGradient id="sky" x1="800" y1="0" x2="800" y2="980" gradientUnits="userSpaceOnUse">
      <stop offset="0" stop-color="#041221"/>
      <stop offset="0.45" stop-color="#0A2340"/>
      <stop offset="0.75" stop-color="#16385B"/>
      <stop offset="1" stop-color="#234F64"/>
    </linearGradient>
    <radialGradient id="moonGlow" cx="0" cy="0" r="1" gradientUnits="userSpaceOnUse" gradientTransform="translate(1185 172) rotate(90) scale(165 165)">
      <stop stop-color="#FFFDEB" stop-opacity="0.95"/>
      <stop offset="0.4" stop-color="#C7E5FF" stop-opacity="0.35"/>
      <stop offset="1" stop-color="#C7E5FF" stop-opacity="0"/>
    </radialGradient>
    <radialGradient id="horizonGlow" cx="0" cy="0" r="1" gradientUnits="userSpaceOnUse" gradientTransform="translate(820 620) rotate(90) scale(320 980)">
      <stop stop-color="#6AC7A6" stop-opacity="0.22"/>
      <stop offset="1" stop-color="#6AC7A6" stop-opacity="0"/>
    </radialGradient>
    <linearGradient id="dune" x1="800" y1="615" x2="800" y2="980" gradientUnits="userSpaceOnUse">
      <stop offset="0" stop-color="#0C2235"/>
      <stop offset="0.5" stop-color="#19344B"/>
      <stop offset="1" stop-color="#2E5B59"/>
    </linearGradient>
    <linearGradient id="pyramidFaceA" x1="0" y1="0" x2="1" y2="1">
      <stop offset="0" stop-color="#D8B471"/>
      <stop offset="1" stop-color="#8F6134"/>
    </linearGradient>
    <linearGradient id="pyramidFaceB" x1="1" y1="0" x2="0" y2="1">
      <stop offset="0" stop-color="#F0D195"/>
      <stop offset="1" stop-color="#A16E3F"/>
    </linearGradient>
    <pattern id="halftone" width="26" height="26" patternUnits="userSpaceOnUse">
      <circle cx="3" cy="3" r="1.8" fill="#F9E7AE" fill-opacity="0.22"/>
      <circle cx="13" cy="8" r="1.2" fill="#F9E7AE" fill-opacity="0.18"/>
      <circle cx="20" cy="18" r="1.6" fill="#F9E7AE" fill-opacity="0.2"/>
      <circle cx="8" cy="21" r="1" fill="#F9E7AE" fill-opacity="0.16"/>
    </pattern>
    <filter id="softBlur" x="-20%" y="-20%" width="140%" height="140%">
      <feGaussianBlur stdDeviation="12"/>
    </filter>
  </defs>

  <rect width="1600" height="980" fill="url(#sky)"/>
  <rect width="1600" height="980" fill="url(#halftone)"/>
  <rect width="1600" height="980" fill="url(#horizonGlow)"/>

  <g opacity="0.95">
    <circle cx="210" cy="152" r="2.5" fill="#F9FBFF"/>
    <circle cx="302" cy="88" r="2" fill="#E1F1FF"/>
    <circle cx="370" cy="218" r="1.8" fill="#F9FBFF"/>
    <circle cx="486" cy="124" r="2.2" fill="#D5EFFF"/>
    <circle cx="564" cy="198" r="1.6" fill="#F9FBFF"/>
    <circle cx="642" cy="108" r="2.1" fill="#E3F3FF"/>
    <circle cx="782" cy="172" r="2" fill="#F9FBFF"/>
    <circle cx="856" cy="84" r="1.6" fill="#E3F3FF"/>
    <circle cx="951" cy="228" r="2.4" fill="#F9FBFF"/>
    <circle cx="1065" cy="104" r="1.8" fill="#E3F3FF"/>
    <circle cx="1288" cy="246" r="2" fill="#F9FBFF"/>
    <circle cx="1380" cy="128" r="2.1" fill="#EAF5FF"/>
  </g>

  <circle cx="1185" cy="172" r="62" fill="#FFF5C7"/>
  <circle cx="1185" cy="172" r="165" fill="url(#moonGlow)"/>

  <g opacity="0.95">
    <path d="M1035 118L1138 76" stroke="#FFF7D2" stroke-width="4" stroke-linecap="round"/>
    <path d="M1000 122L1120 73" stroke="#C9E9FF" stroke-opacity="0.42" stroke-width="14" stroke-linecap="round" filter="url(#softBlur)"/>
    <path d="M1285 210L1360 178" stroke="#FFF7D2" stroke-width="3.5" stroke-linecap="round"/>
    <path d="M1260 216L1350 176" stroke="#C9E9FF" stroke-opacity="0.35" stroke-width="11" stroke-linecap="round" filter="url(#softBlur)"/>
    <path d="M815 130L888 102" stroke="#FFF7D2" stroke-width="3" stroke-linecap="round"/>
    <path d="M798 134L882 101" stroke="#C9E9FF" stroke-opacity="0.32" stroke-width="9" stroke-linecap="round" filter="url(#softBlur)"/>
  </g>

  <path d="M0 701C131 652 242 639 368 665C510 693 567 733 695 731C843 728 932 640 1098 650C1283 662 1436 748 1600 762V980H0V701Z" fill="url(#dune)"/>
  <path d="M0 800C177 768 328 759 450 781C564 801 637 835 767 833C907 831 1014 776 1154 779C1308 781 1426 821 1600 867V980H0V800Z" fill="#15364A"/>
  <path d="M0 864C164 833 282 833 395 851C529 872 654 910 795 908C951 906 1083 856 1218 864C1354 873 1485 910 1600 946V980H0V864Z" fill="#244C58"/>

  <g transform="translate(890 418)">
    <path d="M0 310L160 0L318 310H0Z" fill="url(#pyramidFaceA)"/>
    <path d="M160 0L318 310H179L160 0Z" fill="url(#pyramidFaceB)"/>
    <path d="M0 310H318" stroke="#3E2A18" stroke-opacity="0.24" stroke-width="4"/>
  </g>

  <g transform="translate(690 474)">
    <path d="M0 252L128 0L258 252H0Z" fill="url(#pyramidFaceA)"/>
    <path d="M128 0L258 252H140L128 0Z" fill="url(#pyramidFaceB)"/>
  </g>

  <g transform="translate(1124 520)">
    <path d="M0 200L96 0L192 200H0Z" fill="url(#pyramidFaceA)"/>
    <path d="M96 0L192 200H104L96 0Z" fill="url(#pyramidFaceB)"/>
  </g>

  <rect x="0" y="0" width="1600" height="980" fill="url(#halftone)" opacity="0.28"/>
  <rect x="0" y="0" width="1600" height="980" fill="url(#moonGlow)" opacity="0.35"/>
</svg>
